<svg width="512" height="200" xmlns="http://www.w3.org/2000/svg" xmlns:svg="http://www.w3.org/2000/svg" preserveAspectRatio="xMinYMin meet">
 <g>
  <title>Layer 1</title>
  <g id="svg_1" fill="#264970">
   <g id="svg_4">
    <path id="svg_5" d="m34.847,16.281c-6.856,0 -12.407,5.544 -12.407,12.417c0,6.856 5.551,12.42 12.407,12.42c6.86,0 12.406,-5.564 12.406,-12.42c0,-6.873 -5.545,-12.417 -12.406,-12.417m81.509,0c-6.859,0 -12.403,5.544 -12.403,12.417c0,6.856 5.544,12.42 12.403,12.42c6.84,0 12.404,-5.564 12.404,-12.42c0,-6.873 -5.564,-12.408 -12.404,-12.417m-40.755,-11.33c-6.855,0 -12.406,5.543 -12.406,12.418c0,6.856 5.55,12.42 12.406,12.42c6.86,0 12.405,-5.564 12.405,-12.42c0,-6.875 -5.546,-12.418 -12.406,-12.418m70.086,45.931a3.9,3.9 0 0 0 -2.362,-0.797c-0.467,0 -0.94,0.085 -1.386,0.257c-8.4,3.213 -16.932,5.652 -24.718,7.466c-1.588,0.37 -2.87,1.55 -3.402,2.966c-5.673,15.539 -20.159,30.336 -35.357,45.834c-0.61,0.579 -1.464,1.343 -2.855,1.343c-1.388,0 -2.234,-0.74 -2.855,-1.343c-15.196,-15.498 -29.682,-30.244 -35.357,-45.784c-0.532,-1.415 -1.815,-2.594 -3.4,-2.966c-7.791,-1.814 -16.343,-4.329 -24.734,-7.54a3.91,3.91 0 0 0 -1.39,-0.257c-0.841,0 -1.656,0.264 -2.344,0.79a3.881,3.881 0 0 0 -1.508,3.432c1.287,12.922 6.393,25.555 15.608,38.792c8.662,12.446 19.96,23.966 30.883,35.106c20.126,20.53 39.139,39.918 40.807,62.401a3.889,3.889 0 0 0 3.878,3.6l23.646,0a3.892,3.892 0 0 0 3.884,-4.08c-0.744,-15.032 -6.401,-30.086 -17.294,-46.016c-2.283,-3.34 -4.728,-6.59 -7.285,-9.77c-1.039,-1.295 -0.604,-2.904 0.19,-3.716c0.786,-0.804 1.575,-1.606 2.37,-2.419c10.923,-11.14 22.22,-22.66 30.883,-35.106c9.214,-13.239 14.318,-25.797 15.606,-38.717c0.128,-1.298 -0.461,-2.676 -1.508,-3.476m-95.454,94.788c-0.56,-0.585 -1.381,-1.182 -2.761,-1.182c-1.765,0 -2.812,1.22 -3.208,1.824c-9.946,15.135 -15.083,29.42 -15.793,43.775a3.938,3.938 0 0 0 1.07,2.883a3.937,3.937 0 0 0 2.83,1.212l23.605,0a3.92,3.92 0 0 0 3.891,-3.614c0.514,-6.919 2.668,-13.854 6.59,-21.142c1.36,-2.521 0.303,-4.89 -0.479,-5.902c-3.89,-5.06 -8.656,-10.457 -15.745,-17.854"/>
    <path id="svg_6" d="m75.628,62.466c7.41,0 11.708,-0.445 13.218,-0.445c1.83,0 3.577,1.499 3.577,3.597c0,0.612 -0.145,1.05 -0.288,1.437c-0.983,2.627 -5.462,12.08 -13.801,20.189c-0.936,0.91 -1.996,1.08 -2.726,1.08l-0.008,0c-0.729,0 -1.788,-0.17 -2.723,-1.08c-8.34,-8.109 -12.82,-17.562 -13.8,-20.19c-0.145,-0.386 -0.29,-0.824 -0.29,-1.436c0,-2.098 1.75,-3.597 3.58,-3.597c1.51,0 5.805,0.445 13.213,0.445l0.049,0"/>
   </g>
   <g stroke="null" id="svg_11">
    <rect id="svg_8" height="12.72727" width="80" y="43.93939" x="157" stroke-linecap="null" stroke-linejoin="null" stroke-dasharray="null" stroke-width="null" fill="#264970"/>
    <rect transform="matrix(0,0.6060606241226196,-0.6060606241226196,0,273.54545736312866,-84.48485171794891) " id="svg_9" height="21" width="132" y="115.8" x="155.9" stroke-linecap="null" stroke-linejoin="null" stroke-dasharray="null" stroke-width="null" fill="#264970"/>
   </g>
  </g>
 </g>
</svg>
